<svg width="21" height="28" viewBox="0 0 21 28" fill="none" xmlns="http://www.w3.org/2000/svg">
<path d="M20.9857 24.1833L19.4603 7.79625C19.4172 7.34475 19.0301 7 18.5658 7H15.877V5.25C15.877 3.843 15.3195 2.52175 14.3067 1.533C13.2939 0.54425 11.9405 0 10.4993 0C7.53447 0 5.1217 2.3555 5.1217 5.25V7H2.43288C1.96861 7 1.58142 7.34475 1.5402 7.79625L0.0147395 24.1833C-0.0766803 25.1597 0.260318 26.1362 0.9379 26.8608C1.61548 27.5853 2.57987 28 3.58549 28H17.415C18.4206 28 19.385 27.5853 20.0626 26.8608C20.7401 26.1362 21.0753 25.1597 20.9857 24.1833ZM6.91424 5.25C6.91424 3.31975 8.52216 1.75 10.4993 1.75C11.4619 1.75 12.3636 2.11225 13.0394 2.77025C13.7152 3.42825 14.0844 4.31025 14.0844 5.25V7H6.91424V5.25ZM18.7379 25.6812C18.3937 26.047 17.9241 26.25 17.4132 26.25H3.58549C3.07641 26.25 2.60497 26.047 2.26259 25.6795C1.91842 25.312 1.7553 24.8378 1.80191 24.3408L3.25208 8.75H5.1217V11.375C5.1217 11.858 5.52323 12.25 6.01797 12.25C6.51271 12.25 6.91424 11.858 6.91424 11.375V8.75H14.0844V11.375C14.0844 11.858 14.486 12.25 14.9807 12.25C15.4754 12.25 15.877 11.858 15.877 11.375V8.75H17.7466L19.1986 24.3425C19.2452 24.8377 19.082 25.3138 18.7379 25.6812Z" fill="#181717"/>
</svg>
