<svg width="24" height="24" viewBox="0 0 24 24" fill="none" xmlns="http://www.w3.org/2000/svg">
<path d="M7.64278 23.4636L9.32118 19.4511C14.1762 21.1125 17.6016 17.5999 17.6016 17.5999C21.4861 13.6845 19.4199 9.15771 19.4199 9.15771L23.4297 7.61131C24.5083 6.98628 23.7257 6.21563 23.7257 6.21563L17.7252 0.25825C16.6921 -0.45449 16.3257 0.53415 16.3257 0.53415L14.6524 4.53469C14.6524 4.53469 10.4024 2.71665 6.53586 6.1952C6.53586 6.1952 2.56897 9.52983 4.53654 14.8434L0.538756 16.3856C-0.466052 16.951 0.24272 17.7813 0.24272 17.7813L6.24326 23.7386C6.24326 23.7395 7.01209 24.4803 7.64278 23.4636ZM16.3188 7.51849C18.6785 9.96667 18.2177 12.4472 18.2177 12.4472L11.432 5.79753C14.3203 5.51396 16.3188 7.51849 16.3188 7.51849ZM6.05362 19.0645L6.97348 18.1551C7.22661 18.3578 7.49519 18.5408 7.77235 18.712L6.54959 21.6353L2.3862 17.502L5.32769 16.3677C5.4624 16.5687 5.60742 16.7628 5.76016 16.9502L4.84201 17.8579C4.50651 18.19 4.50479 18.729 4.8403 19.062C4.8403 19.062 5.43924 19.6708 6.05362 19.0645ZM7.55011 16.4333C5.10973 13.9314 5.77474 11.1367 5.77474 11.1367L12.8607 18.1389C9.85748 18.5928 7.55011 16.4333 7.55011 16.4333ZM17.7629 14.3649C17.176 15.7665 16.0854 16.9059 14.7185 17.5709L6.3385 9.2897C6.9915 7.95193 8.10872 6.87898 9.48679 6.28461L17.7629 14.3649ZM18.6356 7.6343C18.5103 7.44611 18.3748 7.26473 18.234 7.08846L19.0526 6.27524C19.3881 5.94229 19.3881 5.40411 19.0526 5.07116C18.7171 4.73821 18.1748 4.73821 17.8393 5.07116L17.0353 5.86906C16.771 5.65362 16.4887 5.46117 16.1987 5.28064L17.4189 2.36411L21.5822 6.49749L18.6356 7.6343Z" fill="#181717"/>
</svg>
