<svg width="32" height="32" viewBox="0 0 32 32" fill="none" xmlns="http://www.w3.org/2000/svg">
<path d="M10.1904 31.2848L12.4282 25.9348C18.9016 28.15 23.4688 23.4665 23.4688 23.4665C28.6482 18.246 25.8932 12.2103 25.8932 12.2103L31.2396 10.1484C32.6777 9.31504 31.6343 8.28751 31.6343 8.28751L23.6336 0.344334C22.2561 -0.605986 21.7676 0.7122 21.7676 0.7122L19.5366 6.04625C19.5366 6.04625 13.8698 3.6222 8.71448 8.26026C8.71448 8.26026 3.42529 12.7064 6.04872 19.7913L0.718342 21.8475C-0.621403 22.6013 0.323626 23.7084 0.323626 23.7084L8.32434 31.6515C8.32434 31.6527 9.34946 32.6405 10.1904 31.2848ZM21.7584 10.0247C24.9047 13.2889 24.2903 16.5963 24.2903 16.5963L15.2427 7.73003C19.0938 7.35195 21.7584 10.0247 21.7584 10.0247ZM8.07149 25.4194L9.29797 24.2068C9.63548 24.477 9.99359 24.7211 10.3631 24.9493L8.73279 28.8471L3.1816 23.3359L7.10358 21.8236C7.28321 22.0916 7.47656 22.3504 7.68021 22.6002L6.45602 23.8105C6.00868 24.2533 6.00639 24.972 6.45373 25.416C6.45373 25.416 7.25232 26.2278 8.07149 25.4194ZM10.0668 21.911C6.81298 18.5753 7.69966 14.8489 7.69966 14.8489L17.1477 24.1852C13.1433 24.7904 10.0668 21.911 10.0668 21.911ZM23.6839 19.1532C22.9014 21.022 21.4472 22.5412 19.6246 23.4279L8.45133 12.3863C9.322 10.6026 10.8116 9.17198 12.649 8.37948L23.6839 19.1532ZM24.8475 10.1791C24.6804 9.92815 24.4997 9.68631 24.312 9.45128L25.4035 8.36699C25.8509 7.92305 25.8509 7.20548 25.4035 6.76155C24.9562 6.31761 24.2331 6.31761 23.7857 6.76155L22.7137 7.82541C22.3613 7.53815 21.9849 7.28156 21.5982 7.04085L23.2251 3.15215L28.7763 8.66332L24.8475 10.1791Z" fill="#CA0F18"/>
</svg>
