<svg width="20" height="20" viewBox="0 0 20 20" fill="none" xmlns="http://www.w3.org/2000/svg">
<path d="M0.207699 19.7905C0.274034 19.8569 0.352807 19.9096 0.439516 19.9456C0.526225 19.9815 0.619168 20 0.713032 20C0.806896 20 0.899839 19.9815 0.986548 19.9456C1.07326 19.9096 1.15203 19.8569 1.21836 19.7905L9.99652 11.0124L18.7782 19.7905C18.9123 19.9245 19.094 19.9998 19.2836 19.9998C19.4731 19.9998 19.6549 19.9245 19.7889 19.7905C19.9229 19.6565 19.9982 19.4747 19.9982 19.2852C19.9982 19.0956 19.9229 18.9139 19.7889 18.7799L11.0072 10.0017L19.7853 1.21998C19.9194 1.08596 19.9946 0.904185 19.9946 0.714649C19.9946 0.525112 19.9194 0.343338 19.7853 0.209316C19.6513 0.0752931 19.4695 0 19.28 0C19.0905 0 18.9087 0.0752931 18.7747 0.209316L9.99652 8.99104L1.21479 0.212887C1.07816 0.0958738 0.902396 0.0347295 0.722636 0.0416729C0.542876 0.0486162 0.372356 0.123136 0.245152 0.25034C0.117948 0.377544 0.0434283 0.548064 0.036485 0.727824C0.0295416 0.907584 0.0906859 1.08334 0.207699 1.21998L8.98585 10.0017L0.207699 18.7834C0.0746691 18.9172 0 19.0983 0 19.287C0 19.4757 0.0746691 19.6567 0.207699 19.7905Z" fill="#181717"/>
</svg>
