<svg width="3" height="16" viewBox="0 0 3 16" fill="none" xmlns="http://www.w3.org/2000/svg">
<path d="M0.738462 11.1392L0.3 4.5007V0H2.72308V4.5007L2.28462 11.1392H0.738462ZM1.5 16C1.08462 16 0.730769 15.8575 0.438462 15.5724C0.146154 15.2874 0 14.9423 0 14.5373C0 14.1322 0.146154 13.7872 0.438462 13.5021C0.730769 13.2171 1.08462 13.0745 1.5 13.0745C1.93077 13.0745 2.28462 13.2171 2.56154 13.5021C2.85385 13.7872 3 14.1322 3 14.5373C3 14.9423 2.85385 15.2874 2.56154 15.5724C2.28462 15.8575 1.93077 16 1.5 16Z" fill="#CA0F18"/>
</svg>
