<svg width="16" height="16" viewBox="0 0 16 16" fill="none" xmlns="http://www.w3.org/2000/svg">
<circle cx="8" cy="8" r="8" fill="#CA0F18"/>
<path d="M7.1968 10.0166C7.1968 9.61142 7.28375 9.23389 7.45767 8.88398C7.63158 8.53407 7.84211 8.23481 8.08924 7.98619C8.33638 7.73757 8.58352 7.50276 8.83066 7.28177C9.0778 7.05157 9.28833 6.80295 9.46224 6.53591C9.63616 6.25967 9.72311 5.96961 9.72311 5.66575C9.72311 5.20534 9.56293 4.85543 9.24256 4.61602C8.93135 4.3674 8.52403 4.24309 8.02059 4.24309C7.01373 4.24309 6.36842 4.68969 6.08467 5.58287L5 4.97514C5.22883 4.33057 5.61785 3.84254 6.16705 3.51105C6.71625 3.17035 7.33867 3 8.03432 3C8.84897 3 9.54462 3.2302 10.1213 3.69061C10.7071 4.15101 11 4.79098 11 5.6105C11 5.99724 10.913 6.36096 10.7391 6.70166C10.5652 7.04236 10.3547 7.33702 10.1076 7.58564C9.86041 7.83425 9.61327 8.07827 9.36613 8.31768C9.11899 8.54788 8.90847 8.81031 8.73455 9.10497C8.56064 9.39042 8.47368 9.69429 8.47368 10.0166H7.1968ZM7.82838 13C7.58124 13 7.37071 12.9125 7.1968 12.7376C7.02288 12.5626 6.93593 12.3508 6.93593 12.1022C6.93593 11.8536 7.02288 11.6418 7.1968 11.4669C7.37071 11.2919 7.58124 11.2044 7.82838 11.2044C8.08467 11.2044 8.29519 11.2919 8.45995 11.4669C8.63387 11.6418 8.72082 11.8536 8.72082 12.1022C8.72082 12.3508 8.63387 12.5626 8.45995 12.7376C8.29519 12.9125 8.08467 13 7.82838 13Z" fill="white"/>
</svg>
