<svg width="28" height="28" viewBox="0 0 28 28" fill="none" xmlns="http://www.w3.org/2000/svg">
<path d="M11.8276 0C5.30584 0 0 5.30584 0 11.8276C0 18.3494 5.30584 23.6552 11.8276 23.6552C18.3494 23.6552 23.6552 18.3494 23.6552 11.8276C23.6552 5.30584 18.3493 0 11.8276 0ZM11.8276 21.5862C6.44656 21.5862 2.06899 17.2086 2.06899 11.8276C2.06899 6.44656 6.44656 2.06899 11.8276 2.06899C17.2083 2.06899 21.5862 6.44656 21.5862 11.8276C21.5862 17.2086 17.2086 21.5862 11.8276 21.5862Z" fill="#181717"/>
<path d="M27.6969 26.2341L20.1796 18.7169C19.7754 18.3128 19.1209 18.3128 18.7168 18.7169C18.3127 19.1207 18.3127 19.7759 18.7168 20.1797L26.2341 27.6969C26.4362 27.899 26.7006 28 26.9655 28C27.2303 28 27.4948 27.899 27.6969 27.6969C28.101 27.2931 28.101 26.638 27.6969 26.2341Z" fill="#181717"/>
</svg>
