<svg width="15" height="20" viewBox="0 0 15 20" fill="none" xmlns="http://www.w3.org/2000/svg">
<path d="M14.9898 17.2738L13.9002 5.56875C13.8695 5.24625 13.5929 5 13.2613 5H11.3407V3.75C11.3407 2.745 10.9425 1.80125 10.2191 1.095C9.49565 0.38875 8.52896 0 7.49952 0C5.38176 0 3.65836 1.6825 3.65836 3.75V5H1.73777C1.40615 5 1.12959 5.24625 1.10014 5.56875L0.0105282 17.2738C-0.0547717 17.9713 0.185942 18.6688 0.669929 19.1863C1.15392 19.7038 1.84276 20 2.56106 20H12.4393C13.1576 20 13.8464 19.7038 14.3304 19.1863C14.8144 18.6688 15.0538 17.9713 14.9898 17.2738ZM4.93875 3.75C4.93875 2.37125 6.08726 1.25 7.49952 1.25C8.18709 1.25 8.83113 1.50875 9.31384 1.97875C9.79654 2.44875 10.0603 3.07875 10.0603 3.75V5H4.93875V3.75ZM13.3842 18.3438C13.1384 18.605 12.8029 18.75 12.438 18.75H2.56106C2.19743 18.75 1.86069 18.605 1.61614 18.3425C1.3703 18.08 1.25379 17.7413 1.28708 17.3862L2.32291 6.25H3.65836V8.125C3.65836 8.47 3.94516 8.75 4.29855 8.75C4.65194 8.75 4.93875 8.47 4.93875 8.125V6.25H10.0603V8.125C10.0603 8.47 10.3471 8.75 10.7005 8.75C11.0539 8.75 11.3407 8.47 11.3407 8.125V6.25H12.6761L13.7133 17.3875C13.7465 17.7412 13.63 18.0813 13.3842 18.3438Z" fill="white"/>
</svg>
